<svg xmlns:dc="http://purl.org/dc/elements/1.1/" xmlns:cc="http://creativecommons.org/ns#" xmlns:rdf="http://www.w3.org/1999/02/22-rdf-syntax-ns#" xmlns:svg="http://www.w3.org/2000/svg" xmlns="http://www.w3.org/2000/svg" version="1.1" x="0px" y="0px" viewBox="0 0 100 125"><path d="m 48.00822,12.232281 c -0.12174,0.069 -0.2362,0.1458 -0.34631,0.23246 -3.5233,2.77287 0.362,13.58928 8.68063,24.15917 3.94364,5.0109 8.17537,9.06562 11.91095,11.65041 -1.01797,1.20741 -1.86518,2.59356 -2.48363,4.14002 -0.20321,0.50815 -0.37663,1.02166 -0.52174,1.53686 -6.27406,-3.09468 -16.07078,-4.14636 -26.6536,-2.32943 -9.69103,1.66381 -17.95731,5.37827 -23.03126,9.83951 -0.47937,-1.47494 -1.58691,-2.73304 -3.1395,-3.35393 -2.7753505,-1.10988 -5.9256905,0.23889 -7.0355805,3.01424 -1.10988,2.77536 0.2416,5.92413 3.01695,7.03402 0.71128,0.28444 1.44672,0.40711 2.1665205,0.38582 -0.3799,1.28744 -0.47958,2.58351 -0.26029,3.86078 0.33794,1.96838 1.39801,3.72581 3.03607,5.22734 -3.6328905,3.48532 -5.1997005,7.68549 -3.4959105,9.60194 1.7873905,2.0105 6.4950705,0.74416 10.5160705,-2.83064 0.8143,-0.72394 1.53908,-1.48574 2.16056,-2.25903 5.90588,1.5275 13.41887,1.78503 21.37746,0.41865 7.50353,-1.28825 14.1546,-3.80613 19.12979,-6.9475 0.64411,1.44227 1.62145,2.96129 2.89341,4.39201 3.57479,4.021 8.10229,5.8302 10.11278,4.0428 2.0105,-1.7874 0.74259,-6.49779 -2.8322,-10.51878 -1.21851,-1.37061 -2.54495,-2.48277 -3.84747,-3.2848 0.20025,-0.24292 0.38881,-0.48822 0.56995,-0.73371 1.24001,1.07099 2.67624,1.95726 4.28297,2.5998 7.77098,3.10767 16.58985,-0.67125 19.69751,-8.44226 3.10768,-7.77101 -0.67128,-16.58985 -8.44226,-19.69752 -2.34346,-0.93717 -4.78108,-1.24671 -7.12996,-1.01029 -1.38268,-4.59682 -4.63126,-10.5228 -9.23821,-16.37652 -8.05867,-10.23959 -17.31955,-16.49164 -21.0937,-14.35142 z m 33.79223,37.88534 c 0.36294,-0.20145 0.76659,-0.3431 1.20049,-0.4113 1.98356,-0.31174 3.84275,1.04455 4.15448,3.02806 0.31179,1.9836 -1.04294,3.84545 -3.0265,4.15719 -1.98356,0.31174 -3.84273,-1.04455 -4.15447,-3.02806 -0.24356,-1.54967 0.52991,-3.02627 1.826,-3.74589 z" style="color:#000000;enable-background:accumulate;" fill="#000000" fill-opacity="1" fill-rule="nonzero" stroke="none" marker="none" visibility="visible" display="inline" overflow="visible"/><text x="0" y="115" fill="#000000" font-size="5px" font-weight="bold" font-family="'Helvetica Neue', Helvetica, Arial-Unicode, Arial, Sans-serif">Created by Bonegolem</text><text x="0" y="120" fill="#000000" font-size="5px" font-weight="bold" font-family="'Helvetica Neue', Helvetica, Arial-Unicode, Arial, Sans-serif">from the Noun Project</text></svg>