<svg xmlns:dc="http://purl.org/dc/elements/1.1/" xmlns:cc="http://creativecommons.org/ns#" xmlns:rdf="http://www.w3.org/1999/02/22-rdf-syntax-ns#" xmlns:svg="http://www.w3.org/2000/svg" xmlns="http://www.w3.org/2000/svg" xmlns:sodipodi="http://sodipodi.sourceforge.net/DTD/sodipodi-0.dtd" xmlns:inkscape="http://www.inkscape.org/namespaces/inkscape" version="1.1" x="0px" y="0px" viewBox="0 0 100 125"><g transform="translate(0,-952.36218)"><path style="font-size:medium;font-style:normal;font-variant:normal;font-weight:normal;font-stretch:normal;text-indent:0;text-align:start;text-decoration:none;line-height:normal;letter-spacing:normal;word-spacing:normal;text-transform:none;direction:ltr;block-progression:tb;writing-mode:lr-tb;text-anchor:start;baseline-shift:baseline;opacity:1;color:#000000;fill:#000000;fill-opacity:1;stroke:none;stroke-width:3.99999976000000010;marker:none;visibility:visible;display:inline;overflow:visible;enable-background:accumulate;font-family:Sans;-inkscape-font-specification:Sans" d="M 32.8125 21 A 2.0001999 2.0001999 0 0 0 31.53125 21.65625 L 6.53125 48.65625 A 2.0001999 2.0001999 0 0 0 6.53125 51.34375 L 31.53125 78.34375 A 2.0001999 2.0001999 0 0 0 33 79 L 92 79 A 2.0001999 2.0001999 0 0 0 94 77 L 94 23 A 2.0001999 2.0001999 0 0 0 92 21 L 33 21 A 2.0001999 2.0001999 0 0 0 32.8125 21 z M 33.875 25 L 90 25 L 90 75 L 33.875 75 L 10.71875 50 L 33.875 25 z M 46.78125 35.96875 A 2.0001999 2.0001999 0 0 0 45.59375 39.40625 L 56.1875 50 L 45.59375 60.5625 A 2.0001999 2.0001999 0 1 0 48.40625 63.40625 L 59 52.8125 L 69.59375 63.40625 A 2.0001999 2.0001999 0 1 0 72.40625 60.5625 L 61.8125 50 L 72.40625 39.40625 A 2.0001999 2.0001999 0 0 0 70.75 35.96875 A 2.0001999 2.0001999 0 0 0 69.59375 36.5625 L 59 47.15625 L 48.40625 36.5625 A 2.0001999 2.0001999 0 0 0 46.78125 35.96875 z " transform="translate(0,952.36218)"/></g><text x="0" y="115" fill="#000000" font-size="5px" font-weight="bold" font-family="'Helvetica Neue', Helvetica, Arial-Unicode, Arial, Sans-serif">Created by Icons Bazaar</text><text x="0" y="120" fill="#000000" font-size="5px" font-weight="bold" font-family="'Helvetica Neue', Helvetica, Arial-Unicode, Arial, Sans-serif">from the Noun Project</text></svg>