<svg xmlns="http://www.w3.org/2000/svg" xmlns:xlink="http://www.w3.org/1999/xlink" version="1.1" x="0px" y="0px" viewBox="0 0 24 30" style="enable-background:new 0 0 24 24;" xml:space="preserve"><g><g><path d="M13.001,11c0.276,0,0.5-0.224,0.5-0.5s-0.224-0.5-0.5-0.5c-0.276,0-0.5,0.224-0.5,0.5S12.725,11,13.001,11z M14.501,13    c0.276,0,0.5-0.224,0.5-0.5s-0.224-0.5-0.5-0.5c-0.276,0-0.5,0.224-0.5,0.5S14.225,13,14.501,13z M6.001,9    c0.276,0,0.5-0.224,0.5-0.5S6.277,8,6.001,8c-0.276,0-0.5,0.224-0.5,0.5S5.725,9,6.001,9z M15.001,9c0.276,0,0.5-0.224,0.5-0.5    S15.277,8,15.001,8c-0.276,0-0.5,0.224-0.5,0.5S14.725,9,15.001,9z M23.339,6.131c-0.205-0.187-0.52-0.173-0.707,0.031    c-0.303,0.33-0.591,0.586-1.151,0.737c0.006-0.133,0.02-0.264,0.02-0.399c0-0.276-0.224-0.5-0.5-0.5h-18    c-0.276,0-0.5,0.224-0.5,0.5c0,0.135,0.015,0.266,0.02,0.399C1.96,6.749,1.672,6.493,1.369,6.162    C1.181,5.958,0.866,5.944,0.662,6.131C0.458,6.318,0.444,6.634,0.631,6.838c0.422,0.46,0.931,0.918,1.992,1.108    c0.519,3.375,2.814,6.166,5.903,7.386l-0.972,1.944c-0.078,0.154-0.069,0.339,0.022,0.486S7.828,18,8.001,18h8    c0.173,0,0.334-0.091,0.425-0.238c0.091-0.147,0.1-0.331,0.022-0.486l-0.972-1.944c3.09-1.22,5.384-4.012,5.903-7.387    c1.06-0.191,1.569-0.648,1.991-1.108C23.556,6.634,23.543,6.318,23.339,6.131z M8.81,17l0.5-1h5.382l0.5,1H8.81z M12.001,15    c-4.519,0-8.225-3.545-8.485-8h16.97C20.227,11.455,16.52,15,12.001,15z M18.001,9c0.276,0,0.5-0.224,0.5-0.5S18.277,8,18.001,8    c-0.276,0-0.5,0.224-0.5,0.5S17.725,9,18.001,9z M16.001,11c0.276,0,0.5-0.224,0.5-0.5s-0.224-0.5-0.5-0.5    c-0.276,0-0.5,0.224-0.5,0.5S15.725,11,16.001,11z M8.501,13c0.276,0,0.5-0.224,0.5-0.5S8.777,12,8.501,12    c-0.276,0-0.5,0.224-0.5,0.5S8.225,13,8.501,13z M9.001,9c0.276,0,0.5-0.224,0.5-0.5S9.277,8,9.001,8c-0.276,0-0.5,0.224-0.5,0.5    S8.725,9,9.001,9z M7.001,11c0.276,0,0.5-0.224,0.5-0.5S7.277,10,7.001,10c-0.276,0-0.5,0.224-0.5,0.5S6.725,11,7.001,11z     M12.001,9c0.276,0,0.5-0.224,0.5-0.5S12.277,8,12.001,8c-0.276,0-0.5,0.224-0.5,0.5S11.725,9,12.001,9z M10.001,11    c0.276,0,0.5-0.224,0.5-0.5s-0.224-0.5-0.5-0.5c-0.276,0-0.5,0.224-0.5,0.5S9.725,11,10.001,11z M11.501,13    c0.276,0,0.5-0.224,0.5-0.5s-0.224-0.5-0.5-0.5c-0.276,0-0.5,0.224-0.5,0.5S11.225,13,11.501,13z"/></g></g><text x="0" y="39" fill="#000000" font-size="5px" font-weight="bold" font-family="'Helvetica Neue', Helvetica, Arial-Unicode, Arial, Sans-serif">Created by icon 54</text><text x="0" y="44" fill="#000000" font-size="5px" font-weight="bold" font-family="'Helvetica Neue', Helvetica, Arial-Unicode, Arial, Sans-serif">from the Noun Project</text></svg>