<svg xmlns="http://www.w3.org/2000/svg" xmlns:sodipodi="http://sodipodi.sourceforge.net/DTD/sodipodi-0.dtd" viewBox="0 0 100 125" x="0px" y="0px"><path d="m 21.363636,58.182 0,-0.419583 -0.409091,0.419583 z" color="#000"/><path d="m 20.136363,58.182 1.227273,-1.258741 0,-0.41958 -1.636364,1.678321 z" color="#000"/><path d="m 18.90909,58.182 2.454546,-2.517484 0,-0.419579 -2.863637,2.937063 z" color="#000"/><path d="m 17.681818,58.182 3.681818,-3.776221 0,-0.419583 -4.09091,4.195804 z" color="#000"/><path d="m 16.454545,58.182 4.909091,-5.034963 0,-0.419583 -5.318182,5.454546 z" color="#000"/><path d="m 15.227271,58.182 6.136365,-6.293704 0,-0.419584 -6.545455,6.713288 z" color="#000"/><path d="m 13.999999,58.182 7.363637,-7.552446 0,-0.419579 -7.772728,7.972025 z" color="#000"/><path d="m 12.772727,58.182 8.590909,-8.811187 0,-0.41958 -9,9.230767 z" color="#000"/><path d="m 11.545454,58.182 9.818182,-10.069925 0,-0.419584 L 11.136363,58.182 z" color="#000"/><path d="m 10.318181,58.182 11.045455,-11.328667 0,-0.41958 L 9.9090905,58.182 z" color="#000"/><path d="m 9.0909089,58.182 12.2727271,-12.587409 0,-0.419579 L 8.6818179,58.182 z" color="#000"/><path d="m 7.8636361,58.182 13.4999999,-13.84615 0,-0.41958 L 7.4545451,58.182 z" color="#000"/><path d="m 6.6363634,58.182 14.7272726,-15.104892 0,-0.41958 L 6.2272727,58.182 z" color="#000"/><path d="m 5.409091,58.182 15.954545,-16.36363 -0.409091,0 L 5,58.182 z" color="#000"/><path d="m 5,57.342838 15.136363,-15.524468 -0.409091,0 L 5,56.923259 z" color="#000"/><path d="m 5,56.0841 13.90909,-14.26573 -0.409091,0 L 5,55.664516 z" color="#000"/><path d="m 5,54.825358 12.681818,-13.006988 -0.409092,0 L 5,54.405779 z" color="#000"/><path d="m 5,53.566617 11.454545,-11.748247 -0.409091,0 L 5,53.147037 z" color="#000"/><path d="m 5,52.307875 10.227271,-10.489505 -0.40909,0 L 5,51.888296 z" color="#000"/><path d="m 5,51.049133 8.999999,-9.230763 -0.409091,0 L 5,50.629554 z" color="#000"/><path d="m 5,49.790392 7.772727,-7.972022 -0.409091,0 L 5,49.370813 z" color="#000"/><path d="m 5,48.531654 6.545454,-6.713284 -0.409091,0 L 5,48.112075 z" color="#000"/><path d="m 5,47.272912 5.318181,-5.454542 -0.4090905,0 L 5,46.853333 z" color="#000"/><path d="m 5,46.014174 4.0909089,-4.195804 -0.409091,0 L 5,45.594591 z" color="#000"/><path d="m 5,44.755433 2.8636361,-2.937063 -0.409091,0 L 5,44.33585 z" color="#000"/><path d="m 5,43.496691 1.6363634,-1.678321 -0.4090907,0 L 5,43.077108 z" color="#000"/><path d="M 5,42.237949 5.409091,41.81837 5,41.81837 z" color="#000"/><path d="m 39.772729,58.181988 0,-0.862923 -0.843753,0.862923 0.843753,0 z" color="#000"/><path d="m 38.513492,58.181988 1.259237,-1.291192 0,-0.856533 -2.096591,2.147725 0.837354,0 z" color="#000"/><path d="m 37.247869,58.181988 2.52486,-2.582384 0,-0.856533 -3.362217,3.438917 0.837357,0 z" color="#000"/><path d="m 35.988637,58.181988 3.784092,-3.873577 0,-0.862924 -4.62145,4.736501 0.837358,0 z" color="#000"/><path d="m 34.729405,58.181988 5.043324,-5.164769 0,-0.862923 -5.880683,6.027692 0.837359,0 z" color="#000"/><path d="m 33.476563,58.181988 6.296166,-6.455961 0,-0.862928 -7.139914,7.318889 0.843748,0 z" color="#000"/><path d="m 32.21733,58.181988 7.555399,-7.753548 0,-0.856533 -8.399151,8.610081 0.843752,0 z" color="#000"/><path d="m 30.958099,58.181988 8.81463,-9.04474 0,-0.856533 -9.658383,9.901273 0.843753,0 z" color="#000"/><path d="m 29.698866,58.181988 10.073863,-10.335932 0,-0.856534 -10.917616,11.192466 0.843753,0 z" color="#000"/><path d="m 28.43963,58.181988 11.333099,-11.627125 0,-0.856533 -12.170457,12.483658 0.837358,0 z" color="#000"/><path d="m 27.180397,58.181988 12.592332,-12.911923 0,-0.862928 -13.42969,13.774851 0.837358,0 z" color="#000"/><path d="m 25.921165,58.181988 13.851564,-14.203119 0,-0.869314 -14.688922,15.072433 0.837358,0 z" color="#000"/><path d="m 24.661933,58.181988 15.110796,-15.494311 0,-0.869319 -15.948154,16.36363 0.837358,0 z" color="#000"/><path d="m 23.409091,58.175609 15.948153,-16.357239 -0.843752,0 -15.104401,15.500702 0,0.856537 z" color="#000"/><path d="m 23.409091,56.884417 14.688922,-15.066047 -0.843753,0 -13.845169,14.20951 0,0.856537 z" color="#000"/><path d="M 23.409091,55.599615 36.83878,41.81837 l -0.843753,0 -12.585936,12.918318 0,0.862927 z" color="#000"/><path d="m 23.409091,54.308423 12.170453,-12.490053 -0.843749,0 -11.326704,11.620735 0,0.869318 z" color="#000"/><path d="m 23.409091,53.017231 10.91122,-11.198861 -0.837357,0 -10.073863,10.329543 0,0.869318 z" color="#000"/><path d="m 23.409091,51.726038 9.651988,-9.907668 -0.837358,0 -8.81463,9.03835 0,0.869318 z" color="#000"/><path d="m 23.409091,50.428452 8.392756,-8.610082 -0.837358,0 -7.555398,7.753548 0,0.856534 z" color="#000"/><path d="m 23.409091,49.137259 7.133523,-7.318889 -0.837357,0 -6.296166,6.462356 0,0.856533 z" color="#000"/><path d="m 23.409091,47.846067 5.874291,-6.027697 -0.837358,0 -5.036933,5.171164 0,0.856533 z" color="#000"/><path d="m 23.409091,46.554874 4.615059,-4.736504 -0.837358,0 -3.777701,3.879971 0,0.856533 z" color="#000"/><path d="m 23.409091,45.263683 3.355823,-3.445313 -0.837354,0 -2.518469,2.588779 0,0.856534 z" color="#000"/><path d="m 23.409091,43.97249 2.09659,-2.15412 -0.837358,0 -1.259232,1.291193 0,0.862927 z" color="#000"/><path d="m 23.409091,42.681298 0.837358,-0.862928 -0.837358,0 0,0.862928 z" color="#000"/><path d="m 41.818182,58.182 16.363633,0 0,-16.36363 -16.363633,0 z" color="#000"/><path d="m 78.636357,58.182 0,-0.419583 0.409098,0.419583 z" color="#000"/><path d="m 79.863628,58.182 -1.227271,-1.258741 0,-0.41958 1.636363,1.678321 z" color="#000"/><path d="m 81.090905,58.182 -2.454548,-2.517484 0,-0.419579 2.86364,2.937063 z" color="#000"/><path d="m 82.318182,58.182 -3.681825,-3.776221 0,-0.419583 4.090917,4.195804 z" color="#000"/><path d="m 83.545452,58.182 -4.909095,-5.034963 0,-0.419583 5.318188,5.454546 z" color="#000"/><path d="m 84.772729,58.182 -6.136372,-6.293704 0,-0.419584 6.545458,6.713288 z" color="#000"/><path d="m 86,58.182 -7.363643,-7.552446 0,-0.419579 7.772735,7.972025 z" color="#000"/><path d="m 87.227271,58.182 -8.590914,-8.811187 0,-0.41958 9.000006,9.230767 z" color="#000"/><path d="m 88.454548,58.182 -9.818191,-10.069925 0,-0.419584 L 88.863634,58.182 z" color="#000"/><path d="m 89.681818,58.182 -11.045461,-11.328667 0,-0.41958 L 90.090911,58.182 z" color="#000"/><path d="m 90.909089,58.182 -12.272732,-12.587409 0,-0.419579 L 91.318182,58.182 z" color="#000"/><path d="m 92.13636,58.182 -13.500003,-13.84615 0,-0.41958 13.909095,14.26573 z" color="#000"/><path d="m 93.363637,58.182 -14.72728,-15.104892 0,-0.41958 L 93.772729,58.182 z" color="#000"/><path d="m 94.590908,58.182 -15.954551,-16.36363 0.409098,0 L 95,58.182 z" color="#000"/><path d="M 95,57.342838 79.863628,41.81837 l 0.409092,0 L 95,56.923259 z" color="#000"/><path d="m 95,56.0841 -13.909095,-14.26573 0.409092,0 L 95,55.664516 z" color="#000"/><path d="M 95,54.825358 82.318182,41.81837 l 0.409092,0 L 95,54.405779 z" color="#000"/><path d="M 95,53.566617 83.545452,41.81837 l 0.409093,0 L 95,53.147037 z" color="#000"/><path d="M 95,52.307875 84.772729,41.81837 l 0.409086,0 L 95,51.888296 z" color="#000"/><path d="m 95,51.049133 -9,-9.230763 0.409092,0 L 95,50.629554 z" color="#000"/><path d="m 95,49.790392 -7.772729,-7.972022 0.409092,0 L 95,49.370813 z" color="#000"/><path d="m 95,48.531654 -6.545452,-6.713284 0.409086,0 L 95,48.112075 z" color="#000"/><path d="m 95,47.272912 -5.318182,-5.454542 0.409093,0 L 95,46.853333 z" color="#000"/><path d="m 95,46.014174 -4.090911,-4.195804 0.409093,0 L 95,45.594591 z" color="#000"/><path d="m 95,44.755433 -2.86364,-2.937063 0.409092,0 L 95,44.33585 z" color="#000"/><path d="m 95,43.496691 -1.636363,-1.678321 0.409092,0 L 95,43.077108 z" color="#000"/><path d="M 95,42.237949 94.590908,41.81837 95,41.81837 z" color="#000"/><path d="m 60.227268,58.181988 0,-0.862923 0.843753,0.862923 -0.843753,0 z" color="#000"/><path d="m 61.486504,58.181988 -1.259236,-1.291192 0,-0.856533 2.09659,2.147725 -0.837354,0 z" color="#000"/><path d="m 62.752131,58.181988 -2.524863,-2.582384 0,-0.856533 3.362216,3.438917 -0.837353,0 z" color="#000"/><path d="m 64.011364,58.181988 -3.784096,-3.873577 0,-0.862924 4.621449,4.736501 -0.837353,0 z" color="#000"/><path d="m 65.270591,58.181988 -5.043323,-5.164769 0,-0.862923 5.880683,6.027692 -0.83736,0 z" color="#000"/><path d="m 66.523436,58.181988 -6.296168,-6.455961 0,-0.862928 7.13991,7.318889 -0.843747,0 z" color="#000"/><path d="m 67.78267,58.181988 -7.555402,-7.753548 0,-0.856533 8.399155,8.610081 -0.843753,0 z" color="#000"/><path d="m 69.041897,58.181988 -8.814629,-9.04474 0,-0.856533 9.658382,9.901273 -0.843753,0 z" color="#000"/><path d="m 70.30113,58.181988 -10.073862,-10.335932 0,-0.856534 10.917615,11.192466 -0.843753,0 z" color="#000"/><path d="m 71.560369,58.181988 -11.333101,-11.627125 0,-0.856533 12.170455,12.483658 -0.837354,0 z" color="#000"/><path d="m 72.819602,58.181988 -12.592334,-12.911923 0,-0.862928 13.429694,13.774851 -0.83736,0 z" color="#000"/><path d="m 74.078829,58.181988 -13.851561,-14.203119 0,-0.869314 14.688921,15.072433 -0.83736,0 z" color="#000"/><path d="m 75.338062,58.181988 -15.110794,-15.494311 0,-0.869319 15.948148,16.36363 -0.837354,0 z" color="#000"/><path d="M 76.590908,58.175609 60.642754,41.81837 l 0.84375,0 15.104404,15.500702 0,0.856537 z" color="#000"/><path d="M 76.590908,56.884417 61.901984,41.81837 l 0.843753,0 13.845171,14.20951 0,0.856537 z" color="#000"/><path d="M 76.590908,55.599615 63.161217,41.81837 l 0.843753,0 12.585938,12.918318 0,0.862927 z" color="#000"/><path d="M 76.590908,54.308423 64.420456,41.81837 l 0.843747,0 11.326705,11.620735 0,0.869318 z" color="#000"/><path d="M 76.590908,53.017231 65.679689,41.81837 l 0.837354,0 10.073865,10.329543 0,0.869318 z" color="#000"/><path d="m 76.590908,51.726038 -9.651986,-9.907668 0.837354,0 8.814632,9.03835 0,0.869318 z" color="#000"/><path d="m 76.590908,50.428452 -8.392758,-8.610082 0.837353,0 7.555405,7.753548 0,0.856534 z" color="#000"/><path d="m 76.590908,49.137259 -7.133525,-7.318889 0.837359,0 6.296166,6.462356 0,0.856533 z" color="#000"/><path d="m 76.590908,47.846067 -5.874292,-6.027697 0.837359,0 5.036933,5.171164 0,0.856533 z" color="#000"/><path d="m 76.590908,46.554874 -4.615059,-4.736504 0.837353,0 3.7777,3.879971 0,0.856533 z" color="#000"/><path d="m 76.590908,45.263683 -3.35582,-3.445313 0.837354,0 2.518466,2.588779 0,0.856534 z" color="#000"/><path d="m 76.590908,43.97249 -2.096593,-2.15412 0.83736,0 1.259233,1.291193 0,0.862927 z" color="#000"/><path d="m 76.590908,42.681298 -0.83736,-0.862928 0.83736,0 0,0.862928 z" color="#000"/><text x="0" y="115" fill="#000000" font-size="5px" font-weight="bold" font-family="'Helvetica Neue', Helvetica, Arial-Unicode, Arial, Sans-serif">Created by Magicon</text><text x="0" y="120" fill="#000000" font-size="5px" font-weight="bold" font-family="'Helvetica Neue', Helvetica, Arial-Unicode, Arial, Sans-serif">from the Noun Project</text></svg>