<?xml version="1.0" encoding="utf-8"?>
<!-- Generator: Adobe Illustrator 19.0.0, SVG Export Plug-In . SVG Version: 6.00 Build 0)  -->
<svg version="1.1" id="Calque_1" xmlns="http://www.w3.org/2000/svg" xmlns:xlink="http://www.w3.org/1999/xlink" x="0px" y="0px"
	 viewBox="84 115 960 384" style="enable-background:new 84 115 960 384;" xml:space="preserve">
<style type="text/css">
	.st0{fill:#83C561;}
	.st1{fill:#497939;}
	.st2{fill:#E26EAA;}
	.st3{fill:#963A6A;}
	.st4{fill:#75D0EE;}
	.st5{fill:#3F89A2;}
	.st6{fill:#BCBEC0;}
	.st7{fill:#77787B;}
</style>
<g id="XMLID_2_">
	<path id="XMLID_108_" class="st0" d="M648,127v168H480V127H648 M660,115H468v192h192V115L660,115z"/>
</g>
<g id="XMLID_1_">
	<path id="XMLID_49_" class="st1" d="M648,319v168H480V319H648 M660,307H468v192h192V307L660,307z"/>
</g>
<g id="XMLID_4_">
	<path id="XMLID_45_" class="st2" d="M840,127v168H672V127H840 M852,115H660v192h192V115L852,115z"/>
</g>
<g id="XMLID_3_">
	<path id="XMLID_41_" class="st3" d="M840,319v168H672V319H840 M852,307H660v192h192V307L852,307z"/>
</g>
<g id="XMLID_6_">
	<path id="XMLID_37_" class="st4" d="M1032,127v168H864V127H1032 M1044,115H852v192h192V115L1044,115z"/>
</g>
<g id="XMLID_5_">
	<path id="XMLID_33_" class="st5" d="M1032,319v168H864V319H1032 M1044,307H852v192h192V307L1044,307z"/>
</g>
<g id="XMLID_9_">
	<path id="XMLID_111_" class="st6" d="M456,127v360H288V127H456 M468,115H276v384h192V115L468,115z"/>
</g>
<g id="XMLID_7_">
	<path id="XMLID_114_" class="st7" d="M264,127v360H96V127H264 M276,115H84v384h192V115L276,115z"/>
</g>
<g id="XMLID_8_">
	<path id="XMLID_10_" class="st7" d="M253.8,138.2v337.5h-147V138.2H253.8 M264.3,127h-168v360h168V127L264.3,127z"/>
</g>
<g id="XMLID_11_">
	<path id="XMLID_12_" class="st1" d="M637.5,329.5v147h-147v-147H637.5 M648,319H480v168h168V319L648,319z"/>
</g>
<g id="XMLID_13_">
	<path id="XMLID_14_" class="st3" d="M829.5,329.5v147h-147v-147H829.5 M840,319H672v168h168V319L840,319z"/>
</g>
<g id="XMLID_15_">
	<path id="XMLID_16_" class="st5" d="M1021.5,329.5v147h-147v-147H1021.5 M1032,319H864v168h168V319L1032,319z"/>
</g>
</svg>
