<svg xmlns="http://www.w3.org/2000/svg" xmlns:xlink="http://www.w3.org/1999/xlink" version="1.1" x="0px" y="0px" viewBox="0 0 80 100" enable-background="new 0 0 80 80" xml:space="preserve"><g><path stroke="#000000" stroke-width="3" stroke-linecap="round" stroke-linejoin="round" stroke-miterlimit="10" d="M24.667,72.5   c-1.656,0-3-1.344-3-3v-59c0-1.657,1.344-3,3-3h4c1.657,0,3,1.343,3,3v59c0,1.656-1.343,3-3,3H24.667z"/><path stroke="#000000" stroke-width="3" stroke-linecap="round" stroke-linejoin="round" stroke-miterlimit="10" d="M51.332,72.5   c-1.656,0-3-1.344-3-3v-59c0-1.657,1.344-3,3-3h4.002c1.656,0,3,1.343,3,3v59c0,1.656-1.344,3-3,3H51.332z"/></g><text x="0" y="95" fill="#000000" font-size="5px" font-weight="bold" font-family="'Helvetica Neue', Helvetica, Arial-Unicode, Arial, Sans-serif">Created by Yeong Rong Kim</text><text x="0" y="100" fill="#000000" font-size="5px" font-weight="bold" font-family="'Helvetica Neue', Helvetica, Arial-Unicode, Arial, Sans-serif">from the Noun Project</text></svg>