<svg xmlns:dc="http://purl.org/dc/elements/1.1/" xmlns:cc="http://creativecommons.org/ns#" xmlns:rdf="http://www.w3.org/1999/02/22-rdf-syntax-ns#" xmlns:svg="http://www.w3.org/2000/svg" xmlns="http://www.w3.org/2000/svg" xmlns:sodipodi="http://sodipodi.sourceforge.net/DTD/sodipodi-0.dtd" xmlns:inkscape="http://www.inkscape.org/namespaces/inkscape" version="1.1" x="0px" y="0px" viewBox="0 0 100 125"><g transform="translate(0,-952.36218)"><path style="text-indent:0;text-transform:none;direction:ltr;block-progression:tb;baseline-shift:baseline;color:#000000;enable-background:accumulate;" d="m 52.957784,961.36203 c 22.6445,0 41.0625,18.3888 41.0625,40.99997 0,22.6002 -18.4017,40.9821 -41.0312,41 a 3.0003,3.0003 0 1 1 0,-6 c 19.3947,-0.015 35.0312,-15.647 35.0312,-35 0,-19.36247 -15.6546,-34.99997 -35.0625,-34.99997 -14.802,0 -27.4296,9.1098 -32.5937,22 l 6.1562,-3.5938 a 3.0003,3.0003 0 1 1 3,5.1875 l -12,7 a 3.0003,3.0003 0 0 1 -4.1562,-1.1875 l -7.0000001,-13 a 3.0003,3.0003 0 0 1 2.6874,-4.4687 3.0003,3.0003 0 0 1 2.6250001,1.625 l 3.2188,5.9687 c 6.1234,-14.99 20.8843,-25.5312 38.0625,-25.5312 z" fill="#000000" fill-opacity="1" stroke="none" marker="none" visibility="visible" display="inline" overflow="visible"/></g><text x="0" y="115" fill="#000000" font-size="5px" font-weight="bold" font-family="'Helvetica Neue', Helvetica, Arial-Unicode, Arial, Sans-serif">Created by Aya Sofya</text><text x="0" y="120" fill="#000000" font-size="5px" font-weight="bold" font-family="'Helvetica Neue', Helvetica, Arial-Unicode, Arial, Sans-serif">from the Noun Project</text></svg>