<?xml version="1.0" encoding="utf-8"?>
<!-- Generator: Adobe Illustrator 19.0.0, SVG Export Plug-In . SVG Version: 6.00 Build 0)  -->
<svg version="1.1"
	 id="Calque_1" xmlns:cc="http://creativecommons.org/ns#" xmlns:rdf="http://www.w3.org/1999/02/22-rdf-syntax-ns#" xmlns:svg="http://www.w3.org/2000/svg" xmlns:dc="http://purl.org/dc/elements/1.1/"
	 xmlns="http://www.w3.org/2000/svg" xmlns:xlink="http://www.w3.org/1999/xlink" x="0px" y="0px" viewBox="-407.8 245 145.2 125"
	 style="enable-background:new -407.8 245 145.2 125;" xml:space="preserve">
<path d="M-310.6,285.2c-0.1,0.1-0.2,0.1-0.3,0.2c-3.5,2.8,0.4,13.6,8.7,24.2c3.9,5,8.2,9.1,11.9,11.7c-1,1.2-1.9,2.6-2.5,4.1
	c-0.2,0.5-0.4,1-0.5,1.5c-6.3-3.1-16.1-4.1-26.7-2.3c-9.7,1.7-18,5.4-23,9.8c-0.5-1.5-1.6-2.7-3.1-3.4c-2.8-1.1-5.9,0.2-7,3
	c-1.1,2.8,0.2,5.9,3,7c0.7,0.3,1.4,0.4,2.2,0.4c-0.4,1.3-0.5,2.6-0.3,3.9c0.3,2,1.4,3.7,3,5.2c-3.6,3.5-5.2,7.7-3.5,9.6
	c1.8,2,6.5,0.7,10.5-2.8c0.8-0.7,1.5-1.5,2.2-2.3c5.9,1.5,13.4,1.8,21.4,0.4c7.5-1.3,14.2-3.8,19.1-6.9c0.6,1.4,1.6,3,2.9,4.4
	c3.6,4,8.1,5.8,10.1,4c2-1.8,0.7-6.5-2.8-10.5c-1.2-1.4-2.5-2.5-3.8-3.3c0.2-0.2,0.4-0.5,0.6-0.7c1.2,1.1,2.7,2,4.3,2.6
	c7.8,3.1,16.6-0.7,19.7-8.4c3.1-7.8-0.7-16.6-8.4-19.7c-2.3-0.9-4.8-1.2-7.1-1c-1.4-4.6-4.6-10.5-9.2-16.4
	C-297.5,289.3-306.8,283.1-310.6,285.2L-310.6,285.2z M-276.8,323.1c0.4-0.2,0.8-0.3,1.2-0.4c2-0.3,3.8,1,4.2,3c0.3,2-1,3.8-3,4.2
	s-3.8-1-4.2-3C-278.8,325.3-278.1,323.8-276.8,323.1z"/>
<g>
	<circle cx="-395.6" cy="263.2" r="1.3"/>
	<path d="M-317,270.8c-0.1-0.5-0.5-0.8-0.9-1c-0.5-0.2-1-0.1-1.4,0.2c-3.7,2.5-6.5,3.3-8,3.6c-3.8-11.7-15.1-20.5-27.6-20.5
		c-11.3,0-21.6,7.2-26.3,17.2c-3-0.8-3.2-2.3-3.2-3.6c0-6.3-4.6-10.7-11.2-10.7c-6.5,0-11.2,4.8-11.2,11.3c0,0.8,0.7,1.5,1.5,1.5h3
		h0.1c0.7,4,2.9,8,5.9,10.2c2.9,2.2,6.6,3.2,9.6,3.7c0,2.3,1.8,4.2,4.1,4.4l-2.2,4.3c-0.9,1.7-0.8,3.7,0.3,5.3
		c1,1.5,2.6,2.4,4.4,2.4c0.1,0,0.3,0,0.4,0l1.8-0.1c3.3-0.2,5.9-2.9,6.1-6.2l0.3-5.6h32.9l0.3,5.6c0.2,3.3,2.8,5.9,6.1,6.2l1.8,0.1
		c0.1,0,0.3,0,0.4,0c1.8,0,3.4-0.9,4.4-2.4c1.1-1.6,1.2-3.6,0.3-5.3l-2.2-4.2h0.3c2.5,0,4.5-2,4.5-4.5c0-0.5-0.1-1.1-0.3-1.5
		C-317.2,277.9-316.5,273-317,270.8z M-360.5,270.8h11.2l4.3,7h-19.8L-360.5,270.8z M-330,275.3c0,0.2,0.1,0.3,0.1,0.5
		c0.2,0.7,0.3,1.3,0.4,2h-12l-5.2-8.4l6.7-8.3C-335.3,264.6-331.6,269.6-330,275.3z M-342.6,259.5l-6.7,8.3h-11.4l-6.7-8.3
		c3.8-2.2,8-3.4,12.4-3.4C-350.5,256.1-346.3,257.3-342.6,259.5z M-369.9,261.1l6.7,8.3l-5.1,8.4h-12.2
		C-379.3,271.1-375.3,265.1-369.9,261.1z M-399.3,268.8h0.8c0.8,0,1.5-0.7,1.5-1.5s-0.7-1.5-1.5-1.5h-2.5h-1.5h-1.3
		c0.6-4.1,3.8-6.8,8.1-6.8c4.1,0,8.2,2.4,8.2,7.7c0,3.3,1.7,5.4,5.1,6.4c-0.6,1.7-1,3.4-1.2,5.1c-0.9,0.3-1.7,0.8-2.3,1.5
		c-2.7-0.4-6.2-1.3-8.8-3.3C-396.9,274.9-398.7,271.9-399.3,268.8z M-375.1,292.6c-0.1,1.8-1.5,3.2-3.3,3.4l-1.8,0.1
		c-0.8,0.1-1.6-0.3-2.1-1s-0.5-1.6-0.1-2.3l2.9-5.6h4.7L-375.1,292.6z M-328.3,292.8c0.4,0.7,0.3,1.6-0.1,2.3
		c-0.5,0.7-1.2,1.1-2.1,1l-1.8-0.1c-1.8-0.1-3.2-1.6-3.3-3.4l-0.3-5.4h4.7L-328.3,292.8z M-327.5,284.2h-54.8
		c-0.9,0-1.5-0.7-1.5-1.5s0.7-1.5,1.5-1.5h54.8c0.9,0,1.5,0.7,1.5,1.5S-326.7,284.2-327.5,284.2z M-325.1,278.7c0,0-0.1,0-0.1,0.1
		c-0.3-0.2-0.7-0.3-1-0.4c-0.1-0.6-0.2-1.3-0.3-1.9c1.5-0.3,3.7-0.9,6.4-2.4C-320.7,275.4-322,277.2-325.1,278.7z"/>
</g>
</svg>
