<svg xmlns="http://www.w3.org/2000/svg" xmlns:xlink="http://www.w3.org/1999/xlink" version="1.1" x="0px" y="0px" viewBox="-749 451 100 125" enable-background="new -749 451 100 100" xml:space="preserve"><g><circle cx="-733.1" cy="489.4" r="1.3"/><path d="M-654.5,497c-0.1-0.5-0.5-0.8-0.9-1c-0.5-0.2-1-0.1-1.4,0.2c-3.7,2.5-6.5,3.3-8,3.6c-3.8-11.7-15.1-20.5-27.6-20.5   c-11.3,0-21.6,7.2-26.3,17.2c-3-0.8-3.2-2.3-3.2-3.6c0-6.3-4.6-10.7-11.2-10.7c-6.5,0-11.2,4.8-11.2,11.3c0,0.8,0.7,1.5,1.5,1.5h3   h0.1c0.7,4,2.9,8,5.9,10.2c2.9,2.2,6.6,3.2,9.6,3.7c0,2.3,1.8,4.2,4.1,4.4l-2.2,4.3c-0.9,1.7-0.8,3.7,0.3,5.3   c1,1.5,2.6,2.4,4.4,2.4c0.1,0,0.3,0,0.4,0l1.8-0.1c3.3-0.2,5.9-2.9,6.1-6.2l0.3-5.6h32.9l0.3,5.6c0.2,3.3,2.8,5.9,6.1,6.2l1.8,0.1   c0.1,0,0.3,0,0.4,0c1.8,0,3.4-0.9,4.4-2.4c1.1-1.6,1.2-3.6,0.3-5.3l-2.2-4.2h0.3c2.5,0,4.5-2,4.5-4.5c0-0.5-0.1-1.1-0.3-1.5   C-654.7,504.1-654,499.2-654.5,497z M-698,497h11.2l4.3,7h-19.8L-698,497z M-667.5,501.5c0,0.2,0.1,0.3,0.1,0.5   c0.2,0.7,0.3,1.3,0.4,2H-679l-5.2-8.4l6.7-8.3C-672.8,490.8-669.1,495.8-667.5,501.5z M-680.1,485.7l-6.7,8.3h-11.4l-6.7-8.3   c3.8-2.2,8-3.4,12.4-3.4C-688,482.3-683.8,483.5-680.1,485.7z M-707.4,487.3l6.7,8.3l-5.1,8.4H-718   C-716.8,497.3-712.8,491.3-707.4,487.3z M-736.8,495h0.8c0.8,0,1.5-0.7,1.5-1.5s-0.7-1.5-1.5-1.5h-2.5h-1.5h-1.3   c0.6-4.1,3.8-6.8,8.1-6.8c4.1,0,8.2,2.4,8.2,7.7c0,3.3,1.7,5.4,5.1,6.4c-0.6,1.7-1,3.4-1.2,5.1c-0.9,0.3-1.7,0.8-2.3,1.5   c-2.7-0.4-6.2-1.3-8.8-3.3C-734.4,501.1-736.2,498.1-736.8,495z M-712.6,518.8c-0.1,1.8-1.5,3.2-3.3,3.4l-1.8,0.1   c-0.8,0.1-1.6-0.3-2.1-1c-0.5-0.7-0.5-1.6-0.1-2.3l2.9-5.6h4.7L-712.6,518.8z M-665.8,519c0.4,0.7,0.3,1.6-0.1,2.3   c-0.5,0.7-1.2,1.1-2.1,1l-1.8-0.1c-1.8-0.1-3.2-1.6-3.3-3.4l-0.3-5.4h4.7L-665.8,519z M-665,510.4h-54.8c-0.9,0-1.5-0.7-1.5-1.5   s0.7-1.5,1.5-1.5h54.8c0.9,0,1.5,0.7,1.5,1.5S-664.2,510.4-665,510.4z M-662.6,504.9c0,0-0.1,0-0.1,0.1c-0.3-0.2-0.7-0.3-1-0.4   c-0.1-0.6-0.2-1.3-0.3-1.9c1.5-0.3,3.7-0.9,6.4-2.4C-658.2,501.6-659.5,503.4-662.6,504.9z"/></g><text x="-749" y="566" fill="#000000" font-size="5px" font-weight="bold" font-family="'Helvetica Neue', Helvetica, Arial-Unicode, Arial, Sans-serif">Created by Isabel Foo</text><text x="-749" y="571" fill="#000000" font-size="5px" font-weight="bold" font-family="'Helvetica Neue', Helvetica, Arial-Unicode, Arial, Sans-serif">from the Noun Project</text></svg>