<svg xmlns="http://www.w3.org/2000/svg" xmlns:xlink="http://www.w3.org/1999/xlink" version="1.1" x="0px" y="0px" viewBox="0 0 100 125" style="enable-background:new 0 0 100 100;" xml:space="preserve"><style type="text/css">
	.st0{fill:#FFFFFF;}
	.st1{fill:#AB218E;}
	.st2{fill:#231F20;}
	.st3{fill:#E19B39;}
	.st4{fill:#C5244A;}
	.st5{fill:#008B58;}
	.st6{fill:none;stroke:#000000;stroke-width:0.5;stroke-linecap:round;stroke-linejoin:round;}
	.st7{fill:#A48C4B;}
	.st8{fill:none;}
	.st9{fill-rule:evenodd;clip-rule:evenodd;fill:#231F20;}
	.st10{fill:#009BD0;}
</style><path d="M30.1,51.1c12.8,7.4,25.6,14.8,38.4,22.2c0.5,0.3,0.9,0.2,1.3,0c0.4-0.2,0.7-0.6,0.7-1.1c0-14.8,0-29.6,0-44.4  c0-1-1.1-1.6-2-1.1c-12.8,7.4-25.6,14.8-38.4,22.2C29.3,49.4,29.3,50.6,30.1,51.1z M67.9,30.1c0,13.3,0,26.6,0,39.9  c-11.5-6.6-23-13.3-34.5-19.9C44.9,43.4,56.4,36.7,67.9,30.1z"/><text x="0" y="115" fill="#000000" font-size="5px" font-weight="bold" font-family="'Helvetica Neue', Helvetica, Arial-Unicode, Arial, Sans-serif">Created by Daria Szymonowicz</text><text x="0" y="120" fill="#000000" font-size="5px" font-weight="bold" font-family="'Helvetica Neue', Helvetica, Arial-Unicode, Arial, Sans-serif">from the Noun Project</text></svg>